# xmcd
#
# Track frame offsets: 
#        183
#        30675
#        51105
#        70783
#        84765
#        107513
#        119948
#        141460
#        162040
#        187838
#        210518
#        230153
#        244140
#
# Disc length: 3399 seconds
#
# Revision: 6
# Processed by: cddbd v1.5.2PL0 Copyright (c) Steve Scherf et al.
# Submitted via: ExactAudioCopy v0.95b3
#
DISCID=b10d450d
DTITLE=Kult - Tata Kazika
DYEAR=1993
DGENRE=Rock
TTITLE0=Celina
TTITLE1=Dziewczyna sie bala pogrzebow
TTITLE2=Baranek
TTITLE3=Notoryczna narzeczona
TTITLE4=Krolowa zycia
TTITLE5=Inzynierowie z Petrobudowy
TTITLE6=Knajpa mordercow
TTITLE7=W czarnej urnie
TTITLE8=Wroci wiosna, baronowo
TTITLE9=Marianna
TTITLE10=Kurwy wedrowniczki
TTITLE11=Bal kreslarzy
TTITLE12=Dyplomata
EXTD=YEAR: 1993
EXTT0=
EXTT1=
EXTT2=
EXTT3=
EXTT4=
EXTT5=
EXTT6=
EXTT7=
EXTT8=
EXTT9=
EXTT10=
EXTT11=
EXTT12=
PLAYORDER=
